# Blender v3.5.1 OBJ File: ''
# www.blender.org
mtllib Hexa.mtl
o Hex
v 0.866000 0.250000 0.500000
v 0.866000 0.250000 -0.500000
v -0.000000 0.250000 -1.000000
v -0.866000 0.250000 -0.500000
v -0.866000 0.250000 0.500000
v 0.000000 0.250000 1.000000
v 0.000000 -0.250000 1.000000
v -0.866000 -0.250000 0.500000
v -0.866000 -0.250000 -0.500000
v 0.866000 -0.250000 0.500000
v -0.000000 -0.250000 -1.000000
v 0.866000 -0.250000 -0.500000
vt 1.000000 0.000000
vt 0.000000 0.000000
vt 0.000000 0.514700
vt 0.000000 1.000000
vt 1.000000 1.000000
vt 1.000000 0.521800
vt 0.000000 0.577900
vt 0.000000 1.000000
vt 1.000000 1.000000
vt 0.000000 0.000000
vt 1.000000 0.552900
vt 1.000000 0.000000
vt 0.000000 0.000000
vt 0.000000 1.000000
vt 1.000000 1.000000
vt 1.000000 0.000000
vt 0.000000 1.000000
vt 0.552900 1.000000
vt 0.514700 0.000000
vt 0.000000 0.000000
vt 0.000000 1.000000
vt 1.000000 1.000000
vt 1.000000 0.000000
vt 0.000000 0.000000
vt 0.422100 1.000000
vt 0.478200 0.000000
vt 1.000000 1.000000
vt 1.000000 0.000000
vn 0.0000 1.0000 0.0000
vn -0.0000 -1.0000 0.0000
vn 1.0000 -0.0000 -0.0000
vn 0.5000 -0.0000 -0.8660
vn 0.0000 0.0000 -1.0000
vn -1.0000 0.0000 0.0000
vn -0.5000 0.0000 0.8660
vn 0.0000 0.0000 1.0000
vn 0.5000 -0.0000 0.8660
vn -0.5000 0.0000 -0.8660
usemtl Default
s 1
f 1/1/1 2/2/1 3/3/1
f 1/1/1 3/3/1 4/4/1
f 4/4/1 5/5/1 6/6/1
f 1/1/1 4/4/1 6/6/1
f 7/7/2 8/8/2 9/9/2
f 10/10/2 7/7/2 9/9/2
f 10/10/2 9/9/2 11/11/2
f 10/10/2 11/11/2 12/12/2
f 1/13/3 10/14/3 12/15/3
f 12/15/3 2/16/3 1/13/3
f 12/17/4 11/18/5 3/19/5
f 3/19/5 2/2/4 12/17/4
f 4/20/6 9/21/6 8/22/6
f 8/22/6 5/23/6 4/20/6
f 5/24/7 8/8/7 7/25/8
f 7/25/8 6/26/8 5/24/7
f 10/27/9 1/1/9 6/26/8
f 7/25/8 10/27/9 6/26/8
f 11/18/5 9/9/10 4/28/10
f 4/28/10 3/19/5 11/18/5
